<?xml version="1.0" encoding="UTF-8"?>
<svg id="Layer_2" data-name="Layer 2" xmlns="http://www.w3.org/2000/svg" xmlns:xlink="http://www.w3.org/1999/xlink" viewBox="0 0 737.39 338.86">
  <defs>
    <style>
      .cls-1 {
        font-family: LEMONMILK-Medium, 'LEMON MILK';
        font-size: 16px;
        fill: rgb(180, 209, 255); /* Updated color */
      }

      .cls-2, .cls-3 {
        fill: rgb(180, 209, 255); /* Updated color */
      }

      .cls-4 {
        letter-spacing: -.03em;
      }

      .cls-5 {
        letter-spacing: -.02em;
      }

      .cls-3 {
        font-family: ProbaPro-Regular, 'Proba Pro';
        font-size: 15px;
        fill: rgb(180, 209, 255); /* Updated color */
      }

      .cls-6 {
        letter-spacing: 0em;
      }

      .cls-7 {
        letter-spacing: -.07em;
      }
    </style>
  </defs>
  <g id="Layer_1-2" data-name="Layer 1">
    <g>
      <g>
        <path class="cls-2" d="M337.9,279.08h-33.31v-13.93c0-4.05,2.76-6.94,6.69-6.94h19.97v-6.99h-26.24v-6.99h26.24c4.09,0,6.64,2.66,6.64,6.99v6.72c0,4.16-2.71,7.22-6.64,7.22h-19.97v6.99h26.61v6.94Z"/>
        <path class="cls-2" d="M375.93,272.14c0,4.66-2.23,6.94-6.64,6.94h-19.97c-4.41,0-6.64-2.28-6.64-6.94v-20.93c0-3.94,3.08-6.99,6.64-6.99h19.97c3.67,0,6.64,3.16,6.64,6.99v20.93Zm-6.64,0v-20.93h-19.97v20.93h19.97Z"/>
        <path class="cls-2" d="M413.97,279.08h-33.31v-13.93c0-4.05,2.76-6.94,6.69-6.94h19.97v-6.99h-26.24v-6.99h26.24c4.09,0,6.64,2.66,6.64,6.99v6.72c0,4.16-2.71,7.22-6.64,7.22h-19.97v6.99h26.61v6.94Z"/>
        <path class="cls-2" d="M450.88,265.14v13.93h-6.69v-13.93h-26.67v-20.93h6.69v13.99h19.97v-13.99h6.69v13.99"/>
      </g>
      <path class="cls-2" d="M293.06,213.91V109.04l20.17-12.77v48.73h63.86v-35.97l20.17-12.77v117.63h-20.17v-48.73h-63.86v48.73h-20.17Z"/>
      <path class="cls-2" d="M502.82,116.44l12.49-20.17h106.77l-15.07,20.17h-39.49v97.47h-20.17V116.44h-44.53Z"/>
      <path class="cls-2" d="M296.14,224.93v2.85h7.99v-2.85h-7.99Zm0,0v2.85h7.99v-2.85h-7.99Zm0,0v2.85h7.99v-2.85h-7.99Zm0,0v2.85h7.99v-2.85h-7.99Zm0,0v2.85h7.99v-2.85h-7.99Zm0,0v2.85h7.99v-2.85h-7.99Zm0,0v2.85h7.99v-2.85h-7.99Zm0,0v2.85h7.99v-2.85h-7.99Zm0,0v2.85h7.99v-2.85h-7.99Zm148.95,0v2.66h7.94v-2.66h-7.94Zm0,0v2.66h7.94v-2.66h-7.94Zm-148.95,0v2.85h7.99v-2.85h-7.99Zm412.02-118.61v70c1.83-.95,3.88-1.47,6.08-1.47,.5,0,1,.02,1.49,.08,6.67,.73,11.85,6.39,11.85,13.25,0,7.37-5.97,13.34-13.34,13.34s-13.34-5.97-13.34-13.34c0-.09,0-.17,0-.25l-8.1,7.63,1.9,2.08-1.11,1.02-21.89,20.18v-.02H27.2v20.17H681.44c.6,0,1.19,0,1.78-.03l29.37-27.68,15.57-14.67c.12-1.47,.17-2.97,.17-4.5V101.29l-20.17,5.03ZM289.91,235.53h-7.94v-2.64h2.66v-7.96h-2.66v-2.67h5.3v10.62h2.64v2.64Zm16.83-2.64c0,1.5-.98,2.64-2.62,2.64h-10.61v-2.64h10.61v-2.45h-7.99c-1.67,0-2.62-.99-2.62-2.66v-2.85c0-1.67,.87-2.67,2.62-2.67h7.99c1.75,0,2.62,1.1,2.62,2.67v7.96Zm16.94-7.96h-5.32v10.6h-2.62v-10.6h-5.32v-2.67h13.26v2.67Zm16.71,10.6h-2.67v-5.3h-7.48v5.3h-2.68v-13.26h2.68v5.32h7.48v-5.32h2.67v13.26Zm10.8-5.3h-6.97v-2.64h6.97v2.64Zm16.81-2.74c0,1.58-1.07,2.74-2.64,2.74h-7.94v2.67h10.58v2.64h-13.24v-5.3c0-1.54,1.1-2.64,2.67-2.64h7.94v-2.66h-10.43v-2.67h10.43c1.62,0,2.64,1.01,2.64,2.67v2.55Zm11.79,8.05h-7.94v-2.64h2.66v-7.96h-2.66v-2.67h5.29v10.62h2.65v2.64Zm16.05-2.64c0,1.71-.98,2.64-2.69,2.64h-9.48v-2.64h9.48v-2.67h-7.03c-1.56,0-2.64-.91-2.64-2.64v-2.66c0-1.69,1.03-2.67,2.64-2.67h9.06v2.67h-9.06v2.66h7.03c1.62,0,2.69,1.03,2.69,2.64v2.67Zm16.92-7.96h-5.32v10.6h-2.63v-10.6h-5.32v-2.67h13.27v2.67Zm25.11,10.6h-10.43c-1.76,0-2.64-.86-2.64-2.64v-2.67h2.64v2.67h7.78v-10.62h2.66v13.26Zm17.81,0h-2.67v-5.3h-7.94v5.3h-2.64v-10.6c0-1.65,1.07-2.67,2.64-2.67h7.94c1.55,0,2.67,1.16,2.67,2.67v10.6Zm17.8,0h-1.62l-8.93-8.99v8.99h-2.68v-13.26h2.24l8.38,8.63v-8.63h2.62v13.26Zm-28.41-7.94h7.94v-2.66h-7.94v2.66Zm-148.95,.19h7.99v-2.85h-7.99v2.85Zm0-2.85v2.85h7.99v-2.85h-7.99Zm0,0v2.85h7.99v-2.85h-7.99Zm0,0v2.85h7.99v-2.85h-7.99Zm0,0v2.85h7.99v-2.85h-7.99Zm0,0v2.85h7.99v-2.85h-7.99Zm0,0v2.85h7.99v-2.85h-7.99Zm0,0v2.85h7.99v-2.85h-7.99Zm0,0v2.85h7.99v-2.85h-7.99Zm0,0v2.85h7.99v-2.85h-7.99Zm0,0v2.85h7.99v-2.85h-7.99Z"/>
      <text class="cls-1" transform="translate(27.2 265.79)"><tspan x="0" y="0">Techno-Man</tspan><tspan class="cls-7" x="115.51" y="0">a</tspan><tspan x="126.79" y="0">gement Fest</tspan></text>
      <text class="cls-1" transform="translate(554.18 265.77)"><tspan x="0" y="0">IIT KHAR</tspan><tspan class="cls-7" x="69.21" y="0">A</tspan><tspan x="80.49" y="0">GPUR</tspan></text>
      <polygon class="cls-2" points="38.05 175.31 38 175.34 37.65 175.6 37.65 175.31 38.05 175.31"/>
      <polygon class="cls-2" points="41.24 172.98 40.84 173.28 40.62 173.44 40.62 172.98 41.24 172.98"/>
      <g>
        <path class="cls-2" d="M41.26,112.13v43.73c1.06,.76,1.7,2.01,1.7,3.33,0,2.27-1.84,4.12-4.12,4.12s-4.12-1.84-4.12-4.12c0-1.34,.65-2.57,1.71-3.33v-43.73c-1.06-.76-1.71-2-1.71-3.33,0-2.26,1.85-4.11,4.12-4.11s4.12,1.84,4.12,4.11c0,1.34-.64,2.57-1.7,3.33Z"/>
        <path class="cls-2" d="M115.27,174.95c-4.24-5.24-8.14-10.01-11.7-14.3-3.55-4.29-6.94-8.4-10.14-12.32,8.31-6.11,16.46-12.16,24.44-18.14,6.61-4.94,13.57-10.07,20.92-15.36l9.79-6.95-22.86-12.81-2.19,1.56-.07,.06s-.03,.02-.05,.04c-.61,.44-1.22,.89-1.83,1.33-11.78,8.58-23.33,17.11-34.65,25.57-11.9,8.89-23.98,17.85-36.21,26.89v-54.2H27.34v79.03h5.29v.05l.07-.05h1.09v-.04h.4l-.05,.04h2.48v22.72c-1.06,.77-1.7,2.01-1.7,3.34,0,2.26,1.84,4.12,4.12,4.12s4.12-1.85,4.12-4.12c0-1.33-.64-2.57-1.7-3.33v-23.13l1.27-.93,2.32-1.71,12.88-9.45c1.25,.39,2.63,.18,3.7-.61,1.84-1.35,2.24-3.94,.89-5.77-.65-.89-1.61-1.47-2.7-1.64-1.09-.16-2.18,.11-3.07,.75-1.08,.79-1.7,2.03-1.69,3.35l-10,7.34-5.22,3.83-1.39,1.02h-5.81V101.71h12.42v60.2l17.01-12.62,7.39,9.97-24.3,18.03-.1-.14v31.28h-12.42v-18.04h.1c.44-.38,.79-.84,1.05-1.37,.28-.56,.43-1.2,.43-1.87s-.15-1.31-.43-1.87c-.28-.56-.67-1.06-1.16-1.46-.57-.47-1.27-.78-2.04-.9-.21-.04-.43-.06-.66-.06-.09,0-.17,0-.26,0-.88,.05-1.68,.36-2.33,.86-1.03,.78-1.7,2.03-1.7,3.42,0,1.29,.57,2.45,1.48,3.24h.22v23.52h23.54v-34.09l23.27-17.25c7.02,8.59,13.95,17.14,20.8,25.68,6.85,8.53,13.74,17.09,20.67,25.67h31.07c-6.48-8.03-12.28-15.23-17.39-21.56-5.1-6.34-9.78-12.14-14.02-17.4Zm-74.66-1.97h.62l-.4,.3-.22,.16v-.46Z"/>
        <polygon class="cls-2" points="41.24 172.98 40.84 173.28 40.62 173.44 40.62 172.98 41.24 172.98"/>
        <polygon class="cls-2" points="34.19 175.31 34.14 175.34 33.79 175.6 33.79 175.31 34.19 175.31"/>
      </g>
      <polygon class="cls-2" points="41.24 172.98 40.84 173.28 40.62 173.44 40.62 172.98 41.24 172.98"/>
      <polygon class="cls-2" points="40.87 172.98 40.84 173.28 40.62 173.44 40.62 172.98 40.87 172.98"/>
      <polygon class="cls-2" points="38 175.34 37.65 175.6 37.65 175.34 38 175.34"/>
      <path class="cls-2" d="M74.46,137.91v.08s.06-.05,.09-.08h-.09Zm-2.93-7.39l.18-.13c-.09,0-.18,0-.27,0l.09,.12Z"/>
      <path class="cls-2" d="M74.55,137.91s-.06,.05-.09,.08v-.08h.09Z"/>
      <polygon class="cls-2" points="69.17 127.3 69.16 127.29 69.17 127.28 69.17 127.3"/>
      <path class="cls-2" d="M71.71,130.39l-.18,.13-.09-.12c.09,0,.18,0,.27,0Z"/>
      <path class="cls-2" d="M71.44,130.4c.09,0,.18,0,.27,0l-.18,.13-.09-.12Z"/>
      <path class="cls-2" d="M74.55,137.91s-.06,.05-.09,.08v-.08h.09Z"/>
      <path class="cls-2" d="M478.02,180.17l22.63,32.25c.45,.64,0,1.53-.79,1.53h-87.74c-.79,0-1.25-.89-.79-1.53l20.77-29.43,17.63-24.96-.12-.16-17.98-25.77-17.51-25.09-6.43-9.21c-.45-.64,.01-1.52,.79-1.52h96.18c.79,0,1.25,.89,.79,1.53l-24.08,34.06-2.55,3.61-9.66,13.66-1.76,2.48c-.39,.55-1.2,.55-1.58,0l-5.38-7.65c-.24-.34-.24-.78,0-1.12l2.35-3.33,2.86-4.04,2.54-3.61,16.47-23.33c.45-.64,0-1.53-.79-1.53h-55.33c-.78,0-1.24,.88-.79,1.53l9.13,13.02,19.25,27.42,6.55,9.34,15.34,21.86Z"/>
      <polygon class="cls-2" points="649.16 95.71 649.16 213.91 628.99 213.91 628.99 119.04 649.16 95.71"/>
      <path class="cls-2" d="M728.33,169.8c-2.93-2.24-6.42-3.82-10.31-4.46-.76-.13-1.54-.21-2.3-.25-2.6-.18-5.15,.09-7.56,.75-8.46,2.31-15.23,9.34-16.77,18.56-.67,4.01-.25,7.94,1.02,11.51,.34,.94,.72,1.85,1.18,2.74,3.22,6.35,9.3,11.12,16.86,12.36,.71,.12,1.41,.2,2.12,.25h0c11.8,.87,22.52-7.4,24.49-19.31,1.44-8.73-2.19-17.12-8.75-22.17Zm-27.43,18.38c0-.09,0-.17,0-.25,.09-5.07,3.01-9.44,7.25-11.61,1.83-.95,3.88-1.47,6.08-1.47,.5,0,1,.02,1.49,.08,6.67,.73,11.85,6.39,11.85,13.25,0,7.37-5.97,13.34-13.34,13.34s-13.34-5.97-13.34-13.34Z"/>
      <path class="cls-2" d="M263.01,116.88h-4.69v-.03h4.03c.22,0,.44,0,.67,.03Z"/>
      <path class="cls-2" d="M275.94,170.67v42.63h-116.53l10.91-20.56,13.31-.08c.4,.05,.8,.07,1.2,.07h71.16v-15.25c0-.76-.11-1.53-.31-2.29,0-.02,0-.04-.02-.05-.19-.75-.49-1.51-.9-2.26-.18-.35-.38-.69-.58-1.01-.66-1.03-1.43-2-2.31-2.89-1.18-1.17-2.55-2.14-4.08-2.89-1.11-.54-2.24-.9-3.36-1.05-.49-.08-.99-.12-1.49-.12l-39.32-.11-15.38-.04c-1.89,0-4.05-.48-6.42-1.44-.14-.06-.31-.13-.46-.19-2.64-1.11-5.24-2.63-7.73-4.51-2.49-1.88-4.75-4.07-6.73-6.49-1.86-2.3-3.16-4.73-3.82-7.26-.05-.26-.14-.6-.35-1.18-.15-.45-.32-1.02-.49-1.69-.17-.67-.34-1.33-.51-2.01l-.03-.11c-.14-.56-.21-1.05-.21-1.47v-42.76h114.2l-.07,.13-10.89,20.49h-1.68c-.22-.02-.44-.03-.67-.03h-80.83v15.68c0,.67,.06,1.32,.18,1.98,0,.02,0,.04,.02,.05,.37,1.86,1.25,3.66,2.63,5.39,1.82,2.27,3.98,3.77,6.43,4.45l.49,.26h1.67c.49,.08,.99,.12,1.49,.12l39.32,.11,15.38,.04c1.89,0,4.05,.48,6.42,1.44,.14,.06,.31,.13,.46,.19,2.64,1.11,5.24,2.63,7.73,4.51,2.49,1.88,4.75,4.07,6.73,6.49,1.86,2.3,3.16,4.73,3.82,7.26,.05,.26,.14,.6,.35,1.18,.15,.45,.32,1.02,.49,1.69,.17,.67,.34,1.33,.51,2.01l.03,.11c.14,.56,.21,1.05,.21,1.47Z"/>
    </g>
    <image width="1664" height="512" transform="translate(517.13 277.97) scale(.12)" xlink:href="../../logos/nucleus.png"/>
    <image width="2550" height="1160" transform="translate(0 7.22) scale(.07)" xlink:href="../../logos/bajaj.png"/>
    <image width="2551" height="1160" transform="translate(124.66) scale(.08)" xlink:href="../../logos/chetak.png"/>
    <text class="cls-3" transform="translate(124.66 77.58)"><tspan x="0" y="0">p</tspan><tspan class="cls-4" x="8.11" y="0">r</tspan><tspan class="cls-6" x="12.84" y="0">e</tspan><tspan x="20.31" y="0">se</tspan><tspan class="cls-5" x="33.69" y="0">n</tspan><tspan x="41.28" y="0">ts</tspan></text>
    <image width="915" height="1024" transform="translate(525.64 245.17) scale(.03)" xlink:href="../../../logos/IIT_Kharagpur_Logo_WHITE.png"/>
  </g>
</svg>